<svg xmlns="http://www.w3.org/2000/svg" width="64" height="64" viewBox="0 0 64 64">
  <rect width="64" height="64" rx="12" fill="#3d5af1" />
  <path d="M19 44V20h13.5c2.5 0 4.5.5 6 1.5 1.5 1 2.25 2.5 2.25 4.5 0 1.5-.5 2.75-1.5 3.75-1 1-2.25 1.65-3.75 1.95v.3c2 .2 3.5.85 4.5 1.95 1 1.1 1.5 2.5 1.5 4.2 0 2.4-.9 4.25-2.7 5.55-1.8 1.3-4.3 1.95-7.5 1.95H19zm7.5-14.25h6.75c1.4 0 2.5-.3 3.3-.9.8-.6 1.2-1.5 1.2-2.7 0-1.1-.4-1.95-1.2-2.55-.8-.6-2-.9-3.6-.9H26.5v7.05zm0 5.5V38h7.5c1.6 0 2.8-.35 3.6-1.05.8-.7 1.2-1.65 1.2-2.85 0-2.2-1.67-3.3-5-3.3h-7.3z" fill="white" />
</svg> 